<svg width="1920" height="1080" xmlns="http://www.w3.org/2000/svg">
  <defs>
    <linearGradient id="skyGradient2" x1="0%" y1="0%" x2="0%" y2="100%">
      <stop offset="0%" style="stop-color:#0f2747;stop-opacity:1" />
      <stop offset="100%" style="stop-color:#3a5a7f;stop-opacity:1" />
    </linearGradient>
    <linearGradient id="buildingGradient2" x1="0%" y1="0%" x2="0%" y2="100%">
      <stop offset="0%" style="stop-color:#3d4e63;stop-opacity:1" />
      <stop offset="100%" style="stop-color:#1f2d3d;stop-opacity:1" />
    </linearGradient>
  </defs>
  <rect width="1920" height="1080" fill="url(#skyGradient2)"/>
  <rect x="300" y="250" width="450" height="750" fill="url(#buildingGradient2)"/>
  <rect x="950" y="200" width="400" height="800" fill="url(#buildingGradient2)"/>
  <polygon points="950,200 1150,100 1350,200" fill="url(#buildingGradient2)"/>
  <!-- Windows -->
  <g fill="#ffd700" opacity="0.75">
    <rect x="330" y="280" width="45" height="45"/><rect x="395" y="280" width="45" height="45"/><rect x="460" y="280" width="45" height="45"/><rect x="525" y="280" width="45" height="45"/>
    <rect x="330" y="370" width="45" height="45"/><rect x="395" y="370" width="45" height="45"/><rect x="460" y="370" width="45" height="45"/><rect x="525" y="370" width="45" height="45"/>
    <rect x="330" y="460" width="45" height="45"/><rect x="395" y="460" width="45" height="45"/><rect x="460" y="460" width="45" height="45"/><rect x="525" y="460" width="45" height="45"/>
    <rect x="330" y="550" width="45" height="45"/><rect x="395" y="550" width="45" height="45"/><rect x="460" y="550" width="45" height="45"/><rect x="525" y="550" width="45" height="45"/>
    <rect x="330" y="640" width="45" height="45"/><rect x="395" y="640" width="45" height="45"/><rect x="460" y="640" width="45" height="45"/><rect x="525" y="640" width="45" height="45"/>
    <rect x="330" y="730" width="45" height="45"/><rect x="395" y="730" width="45" height="45"/><rect x="460" y="730" width="45" height="45"/><rect x="525" y="730" width="45" height="45"/>
    <rect x="990" y="240" width="40" height="40"/><rect x="1050" y="240" width="40" height="40"/><rect x="1110" y="240" width="40" height="40"/>
    <rect x="990" y="320" width="40" height="40"/><rect x="1050" y="320" width="40" height="40"/><rect x="1110" y="320" width="40" height="40"/>
  </g>
  <!-- Ground -->
  <rect x="0" y="1000" width="1920" height="80" fill="#2d3e2d"/>
</svg>