<svg width="1920" height="1080" xmlns="http://www.w3.org/2000/svg">
  <defs>
    <linearGradient id="skyGradient1" x1="0%" y1="0%" x2="0%" y2="100%">
      <stop offset="0%" style="stop-color:#1e3a5f;stop-opacity:1" />
      <stop offset="100%" style="stop-color:#4a5f89;stop-opacity:1" />
    </linearGradient>
    <linearGradient id="buildingGradient1" x1="0%" y1="0%" x2="0%" y2="100%">
      <stop offset="0%" style="stop-color:#2d3e5f;stop-opacity:1" />
      <stop offset="100%" style="stop-color:#1a2332;stop-opacity:1" />
    </linearGradient>
  </defs>
  <rect width="1920" height="1080" fill="url(#skyGradient1)"/>
  <rect x="400" y="300" width="400" height="700" fill="url(#buildingGradient1)"/>
  <rect x="900" y="250" width="350" height="750" fill="url(#buildingGradient1)"/>
  <rect x="1400" y="350" width="320" height="650" fill="url(#buildingGradient1)"/>
  <!-- Windows -->
  <g fill="#ffd700" opacity="0.8">
    <rect x="420" y="320" width="40" height="40"/><rect x="480" y="320" width="40" height="40"/><rect x="540" y="320" width="40" height="40"/>
    <rect x="420" y="400" width="40" height="40"/><rect x="480" y="400" width="40" height="40"/><rect x="540" y="400" width="40" height="40"/>
    <rect x="420" y="480" width="40" height="40"/><rect x="480" y="480" width="40" height="40"/><rect x="540" y="480" width="40" height="40"/>
    <rect x="420" y="560" width="40" height="40"/><rect x="480" y="560" width="40" height="40"/><rect x="540" y="560" width="40" height="40"/>
    <rect x="420" y="640" width="40" height="40"/><rect x="480" y="640" width="40" height="40"/><rect x="540" y="640" width="40" height="40"/>
    <rect x="420" y="720" width="40" height="40"/><rect x="480" y="720" width="40" height="40"/><rect x="540" y="720" width="40" height="40"/>
    <rect x="920" y="270" width="35" height="35"/><rect x="970" y="270" width="35" height="35"/><rect x="1020" y="270" width="35" height="35"/>
    <rect x="920" y="330" width="35" height="35"/><rect x="970" y="330" width="35" height="35"/><rect x="1020" y="330" width="35" height="35"/>
  </g>
  <!-- Ground -->
  <rect x="0" y="1000" width="1920" height="80" fill="#2d3e2d"/>
</svg>