<svg width="1920" height="1080" xmlns="http://www.w3.org/2000/svg">
  <defs>
    <linearGradient id="skyGradient5" x1="0%" y1="0%" x2="0%" y2="100%">
      <stop offset="0%" style="stop-color:#162234;stop-opacity:1" />
      <stop offset="100%" style="stop-color:#4a6f92;stop-opacity:1" />
    </linearGradient>
    <linearGradient id="buildingGradient5" x1="0%" y1="0%" x2="0%" y2="100%">
      <stop offset="0%" style="stop-color:#3f5261;stop-opacity:1" />
      <stop offset="100%" style="stop-color:#1f2b38;stop-opacity:1" />
    </linearGradient>
  </defs>
  <rect width="1920" height="1080" fill="url(#skyGradient5)"/>
  <rect x="350" y="300" width="400" height="700" fill="url(#buildingGradient5)"/>
  <rect x="950" y="250" width="450" height="750" fill="url(#buildingGradient5)"/>
  <rect x="1600" y="380" width="300" height="620" fill="url(#buildingGradient5)"/>
  <polygon points="950,250 1175,80 1400,250" fill="url(#buildingGradient5)"/>
  <!-- Windows -->
  <g fill="#ffd700" opacity="0.85">
    <rect x="380" y="335" width="42" height="42"/><rect x="445" y="335" width="42" height="42"/><rect x="510" y="335" width="42" height="42"/>
    <rect x="380" y="425" width="42" height="42"/><rect x="445" y="425" width="42" height="42"/><rect x="510" y="425" width="42" height="42"/>
    <rect x="380" y="515" width="42" height="42"/><rect x="445" y="515" width="42" height="42"/><rect x="510" y="515" width="42" height="42"/>
    <rect x="380" y="605" width="42" height="42"/><rect x="445" y="605" width="42" height="42"/><rect x="510" y="605" width="42" height="42"/>
    <rect x="380" y="695" width="42" height="42"/><rect x="445" y="695" width="42" height="42"/><rect x="510" y="695" width="42" height="42"/>
    <rect x="1000" y="280" width="45" height="45"/><rect x="1070" y="280" width="45" height="45"/><rect x="1140" y="280" width="45" height="45"/>
    <rect x="1000" y="375" width="45" height="45"/><rect x="1070" y="375" width="45" height="45"/><rect x="1140" y="375" width="45" height="45"/>
    <rect x="1000" y="470" width="45" height="45"/><rect x="1070" y="470" width="45" height="45"/><rect x="1140" y="470" width="45" height="45"/>
  </g>
  <!-- Ground -->
  <rect x="0" y="1000" width="1920" height="80" fill="#2d3e2d"/>
</svg>