<svg width="1920" height="1080" xmlns="http://www.w3.org/2000/svg">
  <defs>
    <linearGradient id="skyGradient4" x1="0%" y1="0%" x2="0%" y2="100%">
      <stop offset="0%" style="stop-color:#0d2a42;stop-opacity:1" />
      <stop offset="100%" style="stop-color:#3d5a7a;stop-opacity:1" />
    </linearGradient>
    <linearGradient id="buildingGradient4" x1="0%" y1="0%" x2="0%" y2="100%">
      <stop offset="0%" style="stop-color:#36495a;stop-opacity:1" />
      <stop offset="100%" style="stop-color:#1b2530;stop-opacity:1" />
    </linearGradient>
  </defs>
  <rect width="1920" height="1080" fill="url(#skyGradient4)"/>
  <rect x="200" y="280" width="430" height="720" fill="url(#buildingGradient4)"/>
  <rect x="800" y="220" width="380" height="780" fill="url(#buildingGradient4)"/>
  <rect x="1350" y="350" width="360" height="650" fill="url(#buildingGradient4)"/>
  <polygon points="1350,350 1530,150 1710,350" fill="url(#buildingGradient4)"/>
  <!-- Windows -->
  <g fill="#ffd700" opacity="0.8">
    <rect x="235" y="310" width="40" height="40"/><rect x="300" y="310" width="40" height="40"/><rect x="365" y="310" width="40" height="40"/>
    <rect x="235" y="395" width="40" height="40"/><rect x="300" y="395" width="40" height="40"/><rect x="365" y="395" width="40" height="40"/>
    <rect x="235" y="480" width="40" height="40"/><rect x="300" y="480" width="40" height="40"/><rect x="365" y="480" width="40" height="40"/>
    <rect x="235" y="565" width="40" height="40"/><rect x="300" y="565" width="40" height="40"/><rect x="365" y="565" width="40" height="40"/>
    <rect x="235" y="650" width="40" height="40"/><rect x="300" y="650" width="40" height="40"/><rect x="365" y="650" width="40" height="40"/>
    <rect x="235" y="735" width="40" height="40"/><rect x="300" y="735" width="40" height="40"/><rect x="365" y="735" width="40" height="40"/>
    <rect x="840" y="250" width="40" height="40"/><rect x="910" y="250" width="40" height="40"/><rect x="980" y="250" width="40" height="40"/>
    <rect x="840" y="340" width="40" height="40"/><rect x="910" y="340" width="40" height="40"/><rect x="980" y="340" width="40" height="40"/>
  </g>
  <!-- Ground -->
  <rect x="0" y="1000" width="1920" height="80" fill="#2d3e2d"/>
</svg>